# xmcd
#
# Track frame offsets:
#	150
#	14715
#	28527
#	42767
#	58540
#	75650
#	88205
#	104442
#	121972
#	136952
#	151932
#
# Disc length: 2338 seconds
#
# Revision: 2
# Processed by: cddbd v1.5.2PL0 Copyright (c) Steve Scherf et al.
# Submitted via: EZCDAudioConverter 7.1.1.1
#
DISCID=8809200b
DTITLE=Andy Griggs - You Won't Ever Be Lonely
DYEAR=1999
DGENRE=Country
TTITLE0=You Made Me That Way
TTITLE1=I'll Go Crazy
TTITLE2=I Miss You The Most
TTITLE3=You Won't Ever Be Lonely
TTITLE4=Waitin' On Sundown
TTITLE5=A Side Of Me
TTITLE6=I Don't Know A Thing
TTITLE7=Shine On Me (With Waylon Jennings)
TTITLE8=Ain't Done Nothin' Wrong
TTITLE9=She's More
TTITLE10=Ain't Livin' Long Like This
EXTD=
EXTT0=
EXTT1=
EXTT2=
EXTT3=
EXTT4=
EXTT5=
EXTT6=
EXTT7=
EXTT8=
EXTT9=
EXTT10=
PLAYORDER=
